
<svg display="none" xmlns="http://www.w3.org/2000/svg">
    <symbol id="user" width="40" height="40" viewBox="0 0 40 40" fill="none" xmlns="http://www.w3.org/2000/svg">
        <circle cx="20" cy="20" r="18" stroke="#1343EA" stroke-width="4"/>
        <circle cx="20.2" cy="15.8" r="6.2" stroke="#1343EA" stroke-width="4"/>
        <path d="M30.8 34.4C30.8 29.9817 25.9647 26.4 20 26.4C14.0353 26.4 9.2 29.9817 9.2 34.4" stroke="#1343EA" stroke-width="4"/>
    </symbol>

    <symbol id="search" width="42" height="42" viewBox="0 0 42 42" fill="none" xmlns="http://www.w3.org/2000/svg">
        <path d="M30.4444 16.7937C30.4444 24.8413 23.9206 31.3651 15.873 31.3651C7.82544 31.3651 1.30159 24.8413 1.30159 16.7937C1.30159 8.74609 7.82544 2.22224 15.873 2.22224C23.9206 2.22224 30.4444 8.74609 30.4444 16.7937Z" stroke="#1343EA" stroke-width="2.60317"/>
        <path d="M38.8686 41.4172C39.4935 42.042 40.5065 42.042 41.1314 41.4172C41.7562 40.7923 41.7562 39.7793 41.1314 39.1544L38.8686 41.4172ZM27.7575 30.3061L38.8686 41.4172L41.1314 39.1544L30.0203 28.0433L27.7575 30.3061Z" fill="#1343EA"/>
        <path d="M5.5703 18.0331C5.12384 12.0092 9.64522 6.76397 15.6691 6.3175" stroke="#1343EA" stroke-width="1.30159" stroke-linecap="round" stroke-linejoin="round"/>
    </symbol>

    <symbol id="message" width="61" height="55" viewBox="0 0 61 55" fill="none" xmlns="http://www.w3.org/2000/svg">
        <path fill-rule="evenodd" clip-rule="evenodd" d="M6 6V34H17.4097C17.9472 34 18.462 34.2163 18.8381 34.6001L30.5 46.5L42.1619 34.6001C42.538 34.2163 43.0528 34 43.5903 34H55V6H6ZM2 0C0.89543 0 0 0.895431 0 2V38C0 39.1046 0.895432 40 2 40H16.25L30.5 55L44.75 40H59C60.1046 40 61 39.1046 61 38V2C61 0.895431 60.1046 0 59 0H2Z" fill="#1343EA"/>
        <path d="M32.4886 9L32.2045 29.9091H28.9091L28.625 9H32.4886ZM30.5568 38.3182C29.8561 38.3182 29.2547 38.0672 28.7528 37.5653C28.2509 37.0634 28 36.4621 28 35.7614C28 35.0606 28.2509 34.4593 28.7528 33.9574C29.2547 33.4555 29.8561 33.2045 30.5568 33.2045C31.2576 33.2045 31.8589 33.4555 32.3608 33.9574C32.8627 34.4593 33.1136 35.0606 33.1136 35.7614C33.1136 36.2254 32.9953 36.6515 32.7585 37.0398C32.5312 37.428 32.2235 37.7405 31.8352 37.9773C31.4564 38.2045 31.0303 38.3182 30.5568 38.3182Z" fill="#1343EA"/>
    </symbol>

    <symbol id="notification" width="28" height="32" viewBox="0 0 28 32" fill="none" xmlns="http://www.w3.org/2000/svg">
        <path d="M10 26.5H2V22.5616C2 21.6438 2.63308 20.8589 3.47643 20.497C4.71042 19.9674 6 19.1127 6 18C6 16.4509 6 12.277 6 10.1979C6 10.0662 6.01251 9.93621 6.03886 9.80717C6.4229 7.92647 7.73078 2.49995 14 2.5C20.5 2.50005 21.5 7 21.5 10V17.1716C21.5 17.702 21.7076 18.2132 22.0991 18.5711C22.6896 19.1111 23.4478 19.7442 24.1804 20.2285C25.1017 20.8378 26 21.8954 26 23V26.5H18.5M10 26.5C10.1667 27.8334 11.1716 30.0001 14 30.0001C17 30.0001 18.1667 27.5 18.5 26.5M10 26.5H18.5" stroke="#1343EA" stroke-width="4"/>
    </symbol>
</svg>
