<svg width="28" height="32" viewBox="0 0 28 32" fill="none" xmlns="http://www.w3.org/2000/svg">
<path d="M10 26.5H2V22.5616C2 21.6438 2.63308 20.8589 3.47643 20.497C4.71042 19.9674 6 19.1127 6 18C6 16.4509 6 12.277 6 10.1979C6 10.0662 6.01251 9.93621 6.03886 9.80717C6.4229 7.92647 7.73078 2.49995 14 2.5C20.5 2.50005 21.5 7 21.5 10V17.1716C21.5 17.702 21.7076 18.2132 22.0991 18.5711C22.6896 19.1111 23.4478 19.7442 24.1804 20.2285C25.1017 20.8378 26 21.8954 26 23V26.5H18.5M10 26.5C10.1667 27.8334 11.1716 30.0001 14 30.0001C17 30.0001 18.1667 27.5 18.5 26.5M10 26.5H18.5" stroke="#1343EA" stroke-width="4"/>
</svg>
