<svg width="120" height="120" viewBox="0 0 120 120" fill="none" xmlns="http://www.w3.org/2000/svg">
<rect width="120" height="120" fill="white"/>
<path d="M37.2597 36.6348C54.0622 36.6348 59.6168 44.2723 59.6168 53.7151C59.6168 68.2958 46.2858 70.1704 34.4824 70.1704H14V14H54.9648V25.248H26.4283V36.6348H37.2597ZM47.8828 53.5068V51.9793C47.8828 48.2994 44.2723 45.3138 38.7178 45.3138H26.6366V60.1722H38.7178C44.2723 60.1722 47.8828 57.1867 47.8828 53.5068Z" fill="#1343EA"/>
<path d="M85.8232 83.264V49.5895H72.4229V56.5327C72.4229 68.8221 69.7845 77.2928 66.9377 83.264H85.8232ZM98.321 83.264H107V105.76H95.8214V94.512H57.6339V105.76H46.4553V83.264C53.6068 83.264 58.8836 83.264 53.1208 83.264C57.981 83.264 65.5808 63.8422 64.4217 53.9896C64.382 47.8628 61.5239 42.978 55.7283 38.3415C61.9077 38.3415 91.1695 38.3415 98.321 38.3415V83.264Z" fill="#1343EA"/>
</svg>
