
<svg display="none" xmlns="http://www.w3.org/2000/svg">
    <symbol id="user" width="40" height="40" viewBox="0 0 40 40" fill="none" xmlns="http://www.w3.org/2000/svg">
        <circle cx="20" cy="20" r="18" stroke="#1343EA" stroke-width="4"/>
        <circle cx="20.2" cy="15.8" r="6.2" stroke="#1343EA" stroke-width="4"/>
        <path d="M30.8 34.4C30.8 29.9817 25.9647 26.4 20 26.4C14.0353 26.4 9.2 29.9817 9.2 34.4" stroke="#1343EA" stroke-width="4"/>
    </symbol>

    <symbol id="search" width="42" height="42" viewBox="0 0 42 42" fill="none" xmlns="http://www.w3.org/2000/svg">
        <path d="M30.4444 16.7937C30.4444 24.8413 23.9206 31.3651 15.873 31.3651C7.82544 31.3651 1.30159 24.8413 1.30159 16.7937C1.30159 8.74609 7.82544 2.22224 15.873 2.22224C23.9206 2.22224 30.4444 8.74609 30.4444 16.7937Z" stroke="#1343EA" stroke-width="2.60317"/>
        <path d="M38.8686 41.4172C39.4935 42.042 40.5065 42.042 41.1314 41.4172C41.7562 40.7923 41.7562 39.7793 41.1314 39.1544L38.8686 41.4172ZM27.7575 30.3061L38.8686 41.4172L41.1314 39.1544L30.0203 28.0433L27.7575 30.3061Z" fill="#1343EA"/>
        <path d="M5.5703 18.0331C5.12384 12.0092 9.64522 6.76397 15.6691 6.3175" stroke="#1343EA" stroke-width="1.30159" stroke-linecap="round" stroke-linejoin="round"/>
    </symbol>
</svg>
